<?xml version="1.0" standalone="no"?><!DOCTYPE svg PUBLIC "-//W3C//DTD SVG 1.1//EN" "http://www.w3.org/Graphics/SVG/1.1/DTD/svg11.dtd"><svg viewBox="0 0 1024 1024" version="1.1" xmlns="http://www.w3.org/2000/svg" xmlns:xlink="http://www.w3.org/1999/xlink" width="64" height="64"><path d="M214.926 156.772s-68.664-1.401-68.664 46.243c0 47.644 65.861 57.453 65.861 57.453v629.181l57.453-30.15V134.352h-40.638l-14.012 22.42zM294.799 134.352v711.911l200.385-105.151h33.631L729.2 846.263V134.352H294.799zM512 661.237s-59.321-7.005-60.256-65.86c-0.871-54.804 60.256-65.86 60.256-65.86s61.126 11.057 60.255 65.86c-0.936 58.855-60.255 65.86-60.255 65.86z m82.676-367.138c0 61.657-35.033 67.262-42.039 141.531 0 0-5.604 71.465-40.637 76.37-35.034-4.904-40.638-76.37-40.638-76.37-7.006-74.27-42.04-79.875-42.04-141.531 0-61.657 50.338-85.471 82.677-85.471 32.343 0 82.677 23.814 82.677 85.471zM809.073 156.772l-14.013-22.421h-40.638v725.146l57.452 30.15V260.468s65.862-9.809 65.862-57.453c0.001-47.644-68.663-46.243-68.663-46.243z" 
fill="#ccc"></path></svg>